<?xml version="1.0" encoding="UTF-8" standalone="no"?>
<!DOCTYPE svg PUBLIC "-//W3C//DTD SVG 1.1//EN" "http://www.w3.org/Graphics/SVG/1.1/DTD/svg11.dtd">


<!-- Created by CipherSanctum.com -->


<svg width="100%" height="100%" viewBox="0 0 622 619" version="1.1" xmlns="http://www.w3.org/2000/svg" xmlns:xlink="http://www.w3.org/1999/xlink" xml:space="preserve" xmlns:serif="http://www.serif.com/" style="fill-rule:evenodd;clip-rule:evenodd;stroke-linecap:round;stroke-linejoin:round;stroke-miterlimit:1.5;">

  <style type="text/css">
    <![CDATA[

    #arm1 { -webkit-animation: happy_hand_left .1s linear infinite alternate; animation: happy_hand_left .1s linear infinite alternate; }
    #arm2 { -webkit-animation: happy_hand_right .1s linear infinite alternate; animation: happy_hand_right .1s linear infinite alternate; }
    @-webkit-keyframes happy_hand_left {
      0% { -webkit-transform: rotate(0deg); transform: rotate(0deg); -webkit-transform-origin: 0% 0%; transform-origin: 0% 0%; }
      100% { -webkit-transform: rotate(-9deg); transform: rotate(-9deg); -webkit-transform-origin: 22% 83%; transform-origin: 22% 83%; }
    }
    @keyframes happy_hand_left {
      0% { -webkit-transform: rotate(0deg); transform: rotate(0deg); -webkit-transform-origin: 0% 0%; transform-origin: 0% 0%; }
      100% { -webkit-transform: rotate(-9deg); transform: rotate(-9deg); -webkit-transform-origin: 22% 83%; transform-origin: 22% 83%; }
    }
    @-webkit-keyframes happy_hand_right {
      0% { -webkit-transform: rotate(0deg); transform: rotate(0deg); -webkit-transform-origin: 0% 0%; transform-origin: 0% 0%; }
      100% { -webkit-transform: rotate(8deg); transform: rotate(8deg); -webkit-transform-origin: 67% 55%; transform-origin: 67% 55%; }
    }
    @keyframes happy_hand_right {
      0% { -webkit-transform: rotate(0deg); transform: rotate(0deg); -webkit-transform-origin: 0% 0%; transform-origin: 0% 0%; }
      100% { -webkit-transform: rotate(8deg); transform: rotate(8deg); -webkit-transform-origin: 67% 55%; transform-origin: 67% 55%; }
    }
    ]]>
  </style>

    <clipPath id="_clip1">
        <rect id="Artboard11" serif:id="Artboard1" x="0" y="0" width="1920" height="1080"/>
    </clipPath>
    <g clip-path="url(#_clip1)">
        <path id="torso" d="M64.256,488.657C45.639,513.795 37.553,533.189 41.608,545.96C67.761,612.235 522.479,625.766 569.503,542.096C569.503,542.096 567.184,484.128 509.989,461.714L533.176,442.005L510.762,419.59C376.375,499.924 180.409,487.692 91.367,415.763L64.256,488.657Z" style="fill:rgb(3,66,239);"/>
        <clipPath id="_clip2">
            <path d="M64.256,488.657C45.639,513.795 37.553,533.189 41.608,545.96C67.761,612.235 522.479,625.766 569.503,542.096C569.503,542.096 567.184,484.128 509.989,461.714L533.176,442.005L510.762,419.59C376.375,499.924 180.409,487.692 91.367,415.763L64.256,488.657Z"/>
        </clipPath>
        <g clip-path="url(#_clip2)">
            <path id="shade" d="M171.048,456.599C171.048,456.599 137.199,507.97 193.607,600.316C137.698,595.847 76.085,587.741 32.546,556.472C36.217,520.465 58.863,468.282 91.393,415.784L171.048,456.599Z" style="fill:rgb(2,52,163);"/>
        </g>
        <path d="M64.256,488.657C45.639,513.795 37.553,533.189 41.608,545.96C67.761,612.235 522.479,625.766 569.503,542.096C569.503,542.096 567.184,484.128 509.989,461.714L533.176,442.005L510.762,419.59C376.375,499.924 180.409,487.692 91.367,415.763L64.256,488.657Z" style="fill:none;stroke:black;stroke-width:5.44px;"/>
        <path id="head" d="M79.635,409.772C11.511,182.123 124.414,99.217 280.436,157.805C355.359,108.498 415.488,98.9 451.248,154.713C451.248,154.713 515.462,143.892 537.458,204.952C537.458,204.952 569.379,234.137 530.795,264.311C530.795,264.311 523.376,281.624 516.945,287.065L488.44,346.108L507.608,383.207C507.608,383.207 521.953,395.687 510.762,419.59C379.25,491.092 170.749,491.412 79.635,409.772Z" style="fill:rgb(85,138,58);"/>
        <clipPath id="_clip3">
            <path d="M79.635,409.772C11.511,182.123 124.414,99.217 280.436,157.805C355.359,108.498 415.488,98.9 451.248,154.713C451.248,154.713 515.462,143.892 537.458,204.952C537.458,204.952 569.379,234.137 530.795,264.311C530.795,264.311 523.376,281.624 516.945,287.065L488.44,346.108L507.608,383.207C507.608,383.207 521.953,395.687 510.762,419.59C379.25,491.092 170.749,491.412 79.635,409.772Z"/>
        </clipPath>
        <g clip-path="url(#_clip3)">
            <path id="shade1" serif:id="shade" d="M152.991,145.495C68.793,160.573 28.038,250.282 75.75,418.376L153.713,454.16C69.709,383.423 97.729,162.8 152.991,145.495Z" style="fill:rgb(75,111,52);"/>
            <g id="eyes-forehead-lines">
                <path d="M274.985,184.331C207.472,157.422 157.66,168.039 123.125,211.042" style="fill:none;stroke:black;stroke-width:5.44px;"/>
                <path d="M309.611,183.836C354.791,160.929 392.548,153.485 421.899,163.555" style="fill:none;stroke:black;stroke-width:5.44px;"/>
                <path d="M344.237,209.064C344.237,209.064 421.568,160.649 451.248,154.713" style="fill:none;stroke:black;stroke-width:5.44px;"/>
                <path d="M117.683,273.37C191.677,268.422 164.453,217.49 274.985,204.117" style="fill:none;stroke:black;stroke-width:5.44px;"/>
            </g>
            <path id="left-eye" d="M362.231,237.816C362.231,237.816 276.16,170.047 189.594,273.431C133.245,282.796 144.038,291.316 225.471,319.676C319.569,318.211 386.41,273.465 362.231,237.816Z" style="fill:white;"/>
            <clipPath id="_clip4">
                <path id="left-eye1" serif:id="left-eye" d="M362.231,237.816C362.231,237.816 276.16,170.047 189.594,273.431C133.245,282.796 144.038,291.316 225.471,319.676C319.569,318.211 386.41,273.465 362.231,237.816Z"/>
            </clipPath>
            <g clip-path="url(#_clip4)">
                <path id="pupil-shine" d="M247.679,315.911C183.659,243.293 323.13,171.546 317.644,299.449C296.417,312.056 273.128,317.655 247.679,315.911Z"/>
                <clipPath id="_clip5">
                    <path id="pupil-shine1" serif:id="pupil-shine" d="M247.679,315.911C183.659,243.293 323.13,171.546 317.644,299.449C296.417,312.056 273.128,317.655 247.679,315.911Z"/>
                </clipPath>
                <g clip-path="url(#_clip5)">
                    <circle cx="270.306" cy="296.441" r="6.514" style="fill:white;"/>
                    <ellipse cx="290.17" cy="264.378" rx="13.455" ry="16.131" style="fill:white;"/>
                    <circle cx="254.948" cy="255.027" r="11.498" style="fill:white;"/>
                    <circle cx="262.364" cy="280.07" r="7.243" style="fill:white;"/>
                </g>
                <path id="pupil-shine2" serif:id="pupil-shine" d="M247.679,315.911C183.659,243.293 323.13,171.546 317.644,299.449C296.417,312.056 273.128,317.655 247.679,315.911Z" style="fill:none;stroke:black;stroke-width:5.44px;"/>
            </g>
            <path id="left-eye2" serif:id="left-eye" d="M362.231,237.816C362.231,237.816 276.16,170.047 189.594,273.431C133.245,282.796 144.038,291.316 225.471,319.676C319.569,318.211 386.41,273.465 362.231,237.816Z" style="fill:none;stroke:black;stroke-width:5.44px;"/>
            <path id="right-eye" d="M364.27,238.195C406.236,221.266 442.49,149.198 531.742,207.803C531.742,207.803 574.734,230.485 523.448,267.842C523.448,267.842 471.2,261.747 433.855,287.181C418.408,297.702 350.177,285.67 353.474,279.901C365.168,269.597 367.772,255.253 364.27,238.195Z" style="fill:white;"/>
            <clipPath id="_clip6">
                <path id="right-eye1" serif:id="right-eye" d="M364.27,238.195C406.236,221.266 442.49,149.198 531.742,207.803C531.742,207.803 574.734,230.485 523.448,267.842C523.448,267.842 471.2,261.747 433.855,287.181C418.408,297.702 350.177,285.67 353.474,279.901C365.168,269.597 367.772,255.253 364.27,238.195Z"/>
            </clipPath>
            <g clip-path="url(#_clip6)">
                <path id="pupil" d="M436.512,284.438C370.359,217.467 508.89,135.604 497.929,267.659C477.456,267.465 456.984,272.812 436.512,284.438Z"/>
                <clipPath id="_clip7">
                    <path id="pupil1" serif:id="pupil" d="M436.512,284.438C370.359,217.467 508.89,135.604 497.929,267.659C477.456,267.465 456.984,272.812 436.512,284.438Z"/>
                </clipPath>
                <g clip-path="url(#_clip7)">
                    <circle cx="442.464" cy="250.997" r="7.699" style="fill:white;"/>
                    <circle cx="452.594" cy="265.788" r="5.471" style="fill:white;"/>
                    <ellipse cx="473.362" cy="238.536" rx="11.65" ry="14.385" style="fill:white;"/>
                    <ellipse cx="445.604" cy="223.847" rx="9.421" ry="10.637" style="fill:white;"/>
                </g>
                <path id="pupil2" serif:id="pupil" d="M436.512,284.438C370.359,217.467 508.89,135.604 497.929,267.659C477.456,267.465 456.984,272.812 436.512,284.438Z" style="fill:none;stroke:black;stroke-width:5.44px;"/>
            </g>
            <path id="right-eye2" serif:id="right-eye" d="M364.27,238.195C406.236,221.266 442.49,149.198 531.742,207.803C531.742,207.803 574.734,230.485 523.448,267.842C523.448,267.842 471.2,261.747 433.855,287.181C418.408,297.702 350.177,285.67 353.474,279.901C365.168,269.597 367.772,255.253 364.27,238.195Z" style="fill:none;stroke:black;stroke-width:5.44px;"/>
        </g>
        <path d="M79.635,409.772C11.511,182.123 124.414,99.217 280.436,157.805C355.359,108.498 415.488,98.9 451.248,154.713C451.248,154.713 515.462,143.892 537.458,204.952C537.458,204.952 569.379,234.137 530.795,264.311C530.795,264.311 523.376,281.624 516.945,287.065L488.44,346.108L507.608,383.207C507.608,383.207 521.953,395.687 510.762,419.59C379.25,491.092 170.749,491.412 79.635,409.772Z" style="fill:none;stroke:black;stroke-width:5.44px;"/>
        <path id="mouth" d="M513.456,345.304C542.962,320.965 549.532,300.967 518.194,287.181C494.168,327.494 376.437,360.23 158.576,327.249C127.772,322.585 102.952,365.375 139.493,378.941C233.827,429.17 485.079,405.043 508.015,381.909C508.015,381.909 533.243,365.09 513.456,345.304Z" style="fill:rgb(165,91,56);"/>
        <clipPath id="_clip8">
            <path d="M513.456,345.304C542.962,320.965 549.532,300.967 518.194,287.181C494.168,327.494 376.437,360.23 158.576,327.249C127.772,322.585 102.952,365.375 139.493,378.941C233.827,429.17 485.079,405.043 508.015,381.909C508.015,381.909 533.243,365.09 513.456,345.304Z"/>
        </clipPath>
        <g clip-path="url(#_clip8)">
            <path d="M171.646,357.67C276.517,386.573 390.118,383.675 513.456,345.304" style="fill:none;stroke:black;stroke-width:5.44px;"/>
        </g>
        <path d="M513.456,345.304C542.962,320.965 549.532,300.967 518.194,287.181C494.168,327.494 376.437,360.23 158.576,327.249C127.772,322.585 102.952,365.375 139.493,378.941C233.827,429.17 485.079,405.043 508.015,381.909C508.015,381.909 533.243,365.09 513.456,345.304Z" style="fill:none;stroke:black;stroke-width:5.44px;"/>
        <g id="arms">
            <path id="arm1" d="M105.295,66.163C90.774,47.286 92.565,-16.014 136.459,38.957C173.013,11.278 196.693,35.802 159.708,66.163C179.319,105.518 153.782,118.487 122.113,88.918C82.24,107.841 64.23,152.791 67.639,223.241C67.639,223.241 57.011,425.163 121.742,447.384C121.742,447.384 138.221,500.745 115.034,523.933C115.034,523.933 39.289,504.223 30.014,398.335C6.631,159.149 46.157,86.671 105.295,66.163Z" style="fill:rgb(85,138,58);stroke:black;stroke-width:5.44px;"/>
            <path id="arm2" d="M544.77,103.085C636.487,155.667 611.756,367.524 533.176,442.005L510.762,419.59C517.718,408.77 514.626,390.993 514.626,390.993C551.951,376.084 563.627,336.118 569.503,235.639C587.279,157.575 520.809,123.181 520.809,123.181C472.578,153.667 455.423,117.944 488.347,92.265C455.161,64.896 488.164,39.693 518.305,71.736C556.737,26.518 577.405,68.035 544.77,103.085Z" style="fill:rgb(85,138,58);stroke:black;stroke-width:5.44px;"/>
        </g>
    </g>
</svg>
